<svg width="36" height="36" viewBox="0 0 36 36" fill="none" xmlns="http://www.w3.org/2000/svg">
<path d="M27.9 0H8.1C3.626 0 0 3.626 0 8.1V27.9C0 32.373 3.626 36 8.1 36H27.9C32.374 36 36 32.373 36 27.9V8.1C36 3.626 32.374 0 27.9 0Z" fill="url(#paint0_linear_2002_29)"/>
<path opacity="0.05" d="M6.3 24.977C4.922 24.977 3.8 23.863 3.8 22.493C3.8 21.123 4.922 20.009 6.3 20.009H10.098L14.967 11.7L13.544 9.271C13.206 8.693 13.113 8.02 13.282 7.374C13.451 6.728 13.862 6.186 14.438 5.85C14.822 5.626 15.258 5.508 15.7 5.508C16.585 5.508 17.412 5.982 17.858 6.745L17.865 6.757L17.871 6.746C18.316 5.983 19.143 5.509 20.029 5.509C20.472 5.509 20.908 5.628 21.292 5.852C22.482 6.55 22.882 8.085 22.184 9.274L15.893 20.01H19.221L19.514 20.305C19.736 20.528 19.939 20.781 20.137 21.079L20.334 21.409C20.823 22.32 20.932 23.327 20.653 24.263L20.442 24.977H6.3Z" fill="black"/>
<path opacity="0.07" d="M6.3 24.477C5.197 24.477 4.3 23.587 4.3 22.493C4.3 21.399 5.197 20.509 6.3 20.509H10.384L15.546 11.7L13.974 9.018C13.704 8.557 13.629 8.018 13.765 7.5C13.9 6.983 14.228 6.55 14.689 6.281C14.996 6.102 15.345 6.007 15.699 6.007C16.407 6.007 17.069 6.386 17.426 6.996L17.864 7.745L18.302 6.997C18.658 6.387 19.32 6.008 20.028 6.008C20.382 6.008 20.731 6.103 21.038 6.282C21.99 6.841 22.309 8.069 21.751 9.02L15.02 20.509H19.012L19.158 20.656C19.356 20.855 19.539 21.083 19.718 21.354L19.903 21.664C20.321 22.445 20.414 23.31 20.173 24.12L20.067 24.477H6.3Z" fill="black"/>
<path d="M19.302 21.63C19.154 21.406 18.99 21.196 18.804 21.009H14.148L21.321 8.767C21.74 8.052 21.5 7.133 20.786 6.714C20.07 6.295 19.151 6.535 18.734 7.25L17.864 8.734L16.994 7.249C16.576 6.534 15.657 6.295 14.942 6.713C14.227 7.131 13.987 8.05 14.406 8.765L16.126 11.7L10.671 21.009H6.3C5.471 21.009 4.8 21.674 4.8 22.493C4.8 23.312 5.471 23.977 6.3 23.977H19.694C19.888 23.324 19.835 22.595 19.473 21.919L19.302 21.63Z" fill="white"/>
<path opacity="0.05" d="M8.5 30.179C8.057 30.179 7.621 30.06 7.237 29.835C6.661 29.497 6.251 28.955 6.082 28.309C5.914 27.663 6.007 26.989 6.345 26.413L7.058 25.195L7.498 25.107C7.859 25.036 8.196 25 8.528 25L8.646 25.001C9.727 25.033 10.706 25.495 11.412 26.301L11.888 26.843L10.659 28.943C10.211 29.706 9.385 30.179 8.5 30.179Z" fill="black"/>
<path opacity="0.07" d="M8.5 29.679C8.146 29.679 7.796 29.584 7.49 29.404C7.03 29.134 6.701 28.7 6.566 28.183C6.431 27.666 6.505 27.127 6.776 26.666L7.376 25.642L7.596 25.598C7.925 25.532 8.23 25.5 8.528 25.5L8.64 25.501C9.573 25.529 10.423 25.93 11.036 26.63L11.274 26.901L10.227 28.69C9.87 29.3 9.208 29.679 8.5 29.679Z" fill="black"/>
<path d="M8.626 26.002C8.309 25.993 7.998 26.028 7.694 26.089L7.207 26.92C6.788 27.635 7.028 28.554 7.743 28.973C7.981 29.113 8.243 29.179 8.5 29.179C9.015 29.179 9.517 28.913 9.795 28.438L10.66 26.961C10.173 26.405 9.47 26.027 8.63 26.002H8.626Z" fill="white"/>
<path opacity="0.05" d="M27.229 30.179C26.344 30.179 25.517 29.705 25.071 28.943L19.044 18.658L19.027 18.606C18.61 17.317 18.692 15.988 19.241 14.813L20.91 11.955L25.63 20.01H29.7C31.078 20.01 32.2 21.124 32.2 22.494C32.2 23.864 31.078 24.978 29.7 24.978H28.541L29.383 26.415C29.721 26.991 29.814 27.664 29.646 28.311C29.478 28.958 29.067 29.499 28.491 29.837C28.109 30.06 27.673 30.179 27.229 30.179Z" fill="black"/>
<path opacity="0.07" d="M27.229 29.679C26.521 29.679 25.859 29.301 25.502 28.691L19.502 18.453L19.485 18.401C19.124 17.283 19.197 16.084 19.693 15.025L20.909 12.944L25.342 20.509H29.7C30.803 20.509 31.7 21.399 31.7 22.493C31.7 23.587 30.803 24.477 29.7 24.477H27.669L28.952 26.667C29.223 27.128 29.297 27.667 29.162 28.184C29.027 28.701 28.699 29.135 28.238 29.405C27.933 29.584 27.584 29.679 27.229 29.679Z" fill="black"/>
<path d="M29.7 21.009H25.057L20.91 13.933L20.147 15.236C19.703 16.186 19.643 17.26 19.962 18.247L25.934 28.438C26.213 28.914 26.714 29.179 27.229 29.179C27.486 29.179 27.748 29.113 27.986 28.973C28.701 28.554 28.94 27.635 28.521 26.92L26.796 23.977H29.7C30.529 23.977 31.2 23.312 31.2 22.493C31.2 21.674 30.529 21.009 29.7 21.009Z" fill="white"/>
<defs>
<linearGradient id="paint0_linear_2002_29" x1="18" y1="-1.383" x2="18" y2="34.096" gradientUnits="userSpaceOnUse">
<stop stop-color="#33BEF0"/>
<stop offset="1" stop-color="#0A85D9"/>
</linearGradient>
</defs>
</svg>
