<svg width="256" height="104" viewBox="0 0 256 104" fill="none" xmlns="http://www.w3.org/2000/svg">
<path d="M4.04545 62V15.4545H13.8864V35.9773H14.5L31.25 15.4545H43.0455L25.7727 36.2955L43.25 62H31.4773L18.7273 42.8636L13.8864 48.7727V62H4.04545ZM56.1932 62H45.6477L61.7159 15.4545H74.3977L90.4432 62H79.8977L68.2386 26.0909H67.875L56.1932 62ZM55.5341 43.7045H80.4432V51.3864H55.5341V43.7045ZM96.0455 62V15.4545H114.409C117.939 15.4545 120.947 16.1288 123.432 17.4773C125.917 18.8106 127.811 20.6667 129.114 23.0455C130.432 25.4091 131.091 28.1364 131.091 31.2273C131.091 34.3182 130.424 37.0455 129.091 39.4091C127.758 41.7727 125.826 43.6136 123.295 44.9318C120.78 46.25 117.735 46.9091 114.159 46.9091H102.455V39.0227H112.568C114.462 39.0227 116.023 38.697 117.25 38.0455C118.492 37.3788 119.417 36.4621 120.023 35.2955C120.644 34.1136 120.955 32.7576 120.955 31.2273C120.955 29.6818 120.644 28.3333 120.023 27.1818C119.417 26.0151 118.492 25.1136 117.25 24.4773C116.008 23.8258 114.432 23.5 112.523 23.5H105.886V62H96.0455ZM137.483 62V15.4545H155.847C159.377 15.4545 162.384 16.1288 164.869 17.4773C167.354 18.8106 169.248 20.6667 170.551 23.0455C171.869 25.4091 172.528 28.1364 172.528 31.2273C172.528 34.3182 171.862 37.0455 170.528 39.4091C169.195 41.7727 167.263 43.6136 164.733 44.9318C162.218 46.25 159.172 46.9091 155.597 46.9091H143.892V39.0227H154.006C155.9 39.0227 157.46 38.697 158.688 38.0455C159.93 37.3788 160.854 36.4621 161.46 35.2955C162.081 34.1136 162.392 32.7576 162.392 31.2273C162.392 29.6818 162.081 28.3333 161.46 27.1818C160.854 26.0151 159.93 25.1136 158.688 24.4773C157.445 23.8258 155.869 23.5 153.96 23.5H147.324V62H137.483ZM178.92 62V15.4545H210.284V23.5682H188.761V34.6591H208.67V42.7727H188.761V53.8864H210.375V62H178.92ZM218.108 62V15.4545H227.949V53.8864H247.903V62H218.108Z" fill="white"/>
<path d="M95.1136 80.5455H97.6364L103.568 95.0341H103.773L109.705 80.5455H112.227V98H110.25V84.7386H110.08L104.625 98H102.716L97.2614 84.7386H97.0909V98H95.1136V80.5455ZM117.181 98H114.965L121.374 80.5455H123.556L129.965 98H127.749L122.533 83.3068H122.397L117.181 98ZM117.999 91.1818H126.931V93.0568H117.999V91.1818ZM132.684 98V80.5455H138.582C139.945 80.5455 141.065 80.7784 141.94 81.2443C142.815 81.7045 143.462 82.3381 143.883 83.1449C144.303 83.9517 144.513 84.8693 144.513 85.8977C144.513 86.9261 144.303 87.8381 143.883 88.6335C143.462 89.429 142.817 90.054 141.948 90.5085C141.079 90.9574 139.968 91.1818 138.616 91.1818H133.843V89.2727H138.548C139.479 89.2727 140.229 89.1364 140.798 88.8636C141.371 88.5909 141.786 88.2045 142.042 87.7045C142.303 87.1989 142.434 86.5966 142.434 85.8977C142.434 85.1989 142.303 84.5881 142.042 84.0653C141.781 83.5426 141.363 83.1392 140.789 82.8551C140.215 82.5653 139.457 82.4205 138.513 82.4205H134.798V98H132.684ZM140.9 90.1591L145.195 98H142.741L138.513 90.1591H140.9ZM162.081 86H159.967C159.842 85.392 159.624 84.858 159.311 84.3977C159.004 83.9375 158.629 83.5511 158.186 83.2386C157.749 82.9205 157.263 82.6818 156.729 82.5227C156.195 82.3636 155.638 82.2841 155.058 82.2841C154.001 82.2841 153.044 82.5511 152.186 83.0852C151.334 83.6193 150.655 84.4062 150.149 85.446C149.649 86.4858 149.399 87.7614 149.399 89.2727C149.399 90.7841 149.649 92.0597 150.149 93.0994C150.655 94.1392 151.334 94.9261 152.186 95.4602C153.044 95.9943 154.001 96.2614 155.058 96.2614C155.638 96.2614 156.195 96.1818 156.729 96.0227C157.263 95.8636 157.749 95.6278 158.186 95.3153C158.629 94.9972 159.004 94.608 159.311 94.1477C159.624 93.6818 159.842 93.1477 159.967 92.5455H162.081C161.922 93.4375 161.632 94.2358 161.212 94.9403C160.791 95.6449 160.268 96.2443 159.643 96.7386C159.018 97.2273 158.317 97.5994 157.538 97.8551C156.766 98.1108 155.939 98.2386 155.058 98.2386C153.57 98.2386 152.246 97.875 151.087 97.1477C149.928 96.4205 149.016 95.3864 148.351 94.0455C147.686 92.7045 147.354 91.1136 147.354 89.2727C147.354 87.4318 147.686 85.8409 148.351 84.5C149.016 83.1591 149.928 82.125 151.087 81.3977C152.246 80.6705 153.57 80.3068 155.058 80.3068C155.939 80.3068 156.766 80.4347 157.538 80.6903C158.317 80.946 159.018 81.321 159.643 81.8153C160.268 82.304 160.791 82.9006 161.212 83.6051C161.632 84.304 161.922 85.1023 162.081 86Z" fill="white"/>
</svg>
